<svg width="200" height="60" viewBox="0 0 200 60" xmlns="http://www.w3.org/2000/svg">
  <defs>
    <linearGradient id="lightBrown" x1="0%" y1="0%" x2="100%" y2="100%">
      <stop offset="0%" style="stop-color:#D2B48C;stop-opacity:1" />
      <stop offset="100%" style="stop-color:#BC9A6A;stop-opacity:1" />
    </linearGradient>
    <linearGradient id="darkBrown" x1="0%" y1="0%" x2="100%" y2="100%">
      <stop offset="0%" style="stop-color:#8B4513;stop-opacity:1" />
      <stop offset="100%" style="stop-color:#654321;stop-opacity:1" />
    </linearGradient>
  </defs>
  
  <!-- Stacked Documents/Books Icon -->
  <g transform="translate(10, 10)">
    <!-- Background document (darkest brown) -->
    <rect x="8" y="8" width="32" height="40" fill="url(#darkBrown)" rx="2" transform="rotate(5 24 28)"/>
    
    <!-- Middle document (light brown) -->
    <rect x="4" y="4" width="32" height="40" fill="url(#lightBrown)" rx="2" transform="rotate(-3 20 24)"/>
    
    <!-- Front document (white) -->
    <rect x="0" y="0" width="32" height="40" fill="white" rx="2"/>
    
    <!-- Document lines -->
    <g transform="translate(4, 8)">
      <line x1="2" y1="4" x2="22" y2="4" stroke="#E5E5E5" stroke-width="1"/>
      <line x1="2" y1="8" x2="20" y2="8" stroke="#E5E5E5" stroke-width="1"/>
      <line x1="2" y1="12" x2="24" y2="12" stroke="#E5E5E5" stroke-width="1"/>
      <line x1="2" y1="16" x2="18" y2="16" stroke="#E5E5E5" stroke-width="1"/>
      <line x1="2" y1="20" x2="22" y2="20" stroke="#E5E5E5" stroke-width="1"/>
      <line x1="2" y1="24" x2="16" y2="24" stroke="#E5E5E5" stroke-width="1"/>
    </g>
  </g>
  
  <!-- Text -->
  <text x="60" y="20" font-family="Arial, sans-serif" font-size="16" font-weight="bold" fill="#8B4513">
    Sindhi Sanchaya
  </text>
  <text x="60" y="35" font-family="Arial, sans-serif" font-size="10" fill="#654321">
    Digital Literature Archive
  </text>
</svg>
